<svg width="490" height="5" viewBox="0 0 490 5" fill="none" xmlns="http://www.w3.org/2000/svg">
<path d="M487.905 0.0175781H1.35142C0.739483 0.0175781 0.243408 0.513653 0.243408 1.12559C0.243408 1.73753 0.739489 2.23361 1.35143 2.23361H120.914C121.921 2.23361 122.921 2.40266 123.873 2.73371L128.935 4.49569C129.886 4.82675 130.886 4.9958 131.893 4.9958H245.374H357.218C358.205 4.9958 359.185 4.83349 360.12 4.51539L365.41 2.71401C366.344 2.39591 367.324 2.23361 368.311 2.23361H487.905C488.517 2.23361 489.013 1.73753 489.013 1.12559C489.013 0.513653 488.517 0.0175781 487.905 0.0175781Z" fill="white"/>
</svg>
