<svg width="32" height="32" viewBox="0 0 32 32" fill="none" xmlns="http://www.w3.org/2000/svg">
<path d="M3.50428 7.09212H0.408447V28.763C0.408447 30.4657 1.80157 31.8588 3.50428 31.8588H25.1751V28.763H3.50428V7.09212ZM28.2709 0.900452H9.69595C7.99324 0.900452 6.60011 2.29358 6.60011 3.99628V22.5713C6.60011 24.274 7.99324 25.6671 9.69595 25.6671H28.2709C29.9737 25.6671 31.3668 24.274 31.3668 22.5713V3.99628C31.3668 2.29358 29.9737 0.900452 28.2709 0.900452ZM26.723 14.8317H11.2439V11.7359H26.723V14.8317ZM20.5314 21.0234H11.2439V17.9275H20.5314V21.0234ZM26.723 8.64003H11.2439V5.5442H26.723V8.64003Z" fill="#BABABA"/>
</svg>
